<svg version="1.1" xmlns="http://www.w3.org/2000/svg" viewBox="0 0 620 503" width="620" height="503">
  <!-- svg-source:excalidraw -->
  
  <defs>
    <style class="style-fonts">
      @font-face {
        font-family: "Virgil";
        src: url("https://excalidraw.com/Virgil.woff2");
      }
      @font-face {
        font-family: "Cascadia";
        src: url("https://excalidraw.com/Cascadia.woff2");
      }
      @font-face {
        font-family: "Assistant";
        src: url("https://excalidraw.com/Assistant-Regular.woff2");
      }
    </style>
    
  </defs>
  <rect x="0" y="0" width="620" height="503" fill="#ffffff"></rect><g stroke-linecap="round" transform="translate(110 130) rotate(0 110 70)"><path d="M32 0 C92.55 0, 153.1 0, 188 0 M32 0 C76.34 0, 120.68 0, 188 0 M188 0 C209.33 0, 220 10.67, 220 32 M188 0 C209.33 0, 220 10.67, 220 32 M220 32 C220 61.13, 220 90.26, 220 108 M220 32 C220 50.79, 220 69.57, 220 108 M220 108 C220 129.33, 209.33 140, 188 140 M220 108 C220 129.33, 209.33 140, 188 140 M188 140 C146.39 140, 104.77 140, 32 140 M188 140 C130.66 140, 73.32 140, 32 140 M32 140 C10.67 140, 0 129.33, 0 108 M32 140 C10.67 140, 0 129.33, 0 108 M0 108 C0 92.21, 0 76.41, 0 32 M0 108 C0 79.28, 0 50.56, 0 32 M0 32 C0 10.67, 10.67 0, 32 0 M0 32 C0 10.67, 10.67 0, 32 0" stroke="#1e1e1e" stroke-width="2" fill="none"></path></g><g transform="translate(196.09375 242) rotate(0 23.90625 11.5)"><text x="23.90625" y="0" font-family="Helvetica, Segoe UI Emoji" font-size="20px" fill="#1e1e1e" text-anchor="middle" style="white-space: pre;" direction="ltr" dominant-baseline="text-before-edge">axlog</text></g><g stroke-linecap="round" transform="translate(130 150) rotate(0 90 39.5)"><path d="M19.75 0 C52.39 0, 85.03 0, 160.25 0 M19.75 0 C51.54 0, 83.34 0, 160.25 0 M160.25 0 C173.42 0, 180 6.58, 180 19.75 M160.25 0 C173.42 0, 180 6.58, 180 19.75 M180 19.75 C180 31.42, 180 43.1, 180 59.25 M180 19.75 C180 30.01, 180 40.26, 180 59.25 M180 59.25 C180 72.42, 173.42 79, 160.25 79 M180 59.25 C180 72.42, 173.42 79, 160.25 79 M160.25 79 C106.93 79, 53.62 79, 19.75 79 M160.25 79 C110.06 79, 59.88 79, 19.75 79 M19.75 79 C6.58 79, 0 72.42, 0 59.25 M19.75 79 C6.58 79, 0 72.42, 0 59.25 M0 59.25 C0 48.08, 0 36.91, 0 19.75 M0 59.25 C0 49.07, 0 38.9, 0 19.75 M0 19.75 C0 6.58, 6.58 0, 19.75 0 M0 19.75 C0 6.58, 6.58 0, 19.75 0" stroke="#1e1e1e" stroke-width="1" fill="none"></path></g><g transform="translate(135 155) rotate(0 79.47265625 34.5)"><text x="0" y="0" font-family="Helvetica, Segoe UI Emoji" font-size="20px" fill="#1e1e1e" text-anchor="start" style="white-space: pre;" direction="ltr" dominant-baseline="text-before-edge">  fn init() {</text><text x="0" y="23" font-family="Helvetica, Segoe UI Emoji" font-size="20px" fill="#1e1e1e" text-anchor="start" style="white-space: pre;" direction="ltr" dominant-baseline="text-before-edge">    call_interface!()</text><text x="0" y="46" font-family="Helvetica, Segoe UI Emoji" font-size="20px" fill="#1e1e1e" text-anchor="start" style="white-space: pre;" direction="ltr" dominant-baseline="text-before-edge">  }</text></g><g stroke-linecap="round" transform="translate(390 130) rotate(0 110 70)"><path d="M32 0 C73.53 0, 115.06 0, 188 0 M32 0 C71.29 0, 110.59 0, 188 0 M188 0 C209.33 0, 220 10.67, 220 32 M188 0 C209.33 0, 220 10.67, 220 32 M220 32 C220 58.98, 220 85.95, 220 108 M220 32 C220 52.1, 220 72.21, 220 108 M220 108 C220 129.33, 209.33 140, 188 140 M220 108 C220 129.33, 209.33 140, 188 140 M188 140 C132.08 140, 76.16 140, 32 140 M188 140 C133.32 140, 78.63 140, 32 140 M32 140 C10.67 140, 0 129.33, 0 108 M32 140 C10.67 140, 0 129.33, 0 108 M0 108 C0 83.51, 0 59.03, 0 32 M0 108 C0 89.19, 0 70.37, 0 32 M0 32 C0 10.67, 10.67 0, 32 0 M0 32 C0 10.67, 10.67 0, 32 0" stroke="#1e1e1e" stroke-width="2" fill="none"></path></g><g transform="translate(476.09375 242) rotate(0 23.90625 11.5)"><text x="23.90625" y="0" font-family="Helvetica, Segoe UI Emoji" font-size="20px" fill="#1e1e1e" text-anchor="middle" style="white-space: pre;" direction="ltr" dominant-baseline="text-before-edge">axhal</text></g><g stroke-linecap="round" transform="translate(410 150) rotate(0 90 40)"><path d="M20 0 C75.58 0, 131.16 0, 160 0 M20 0 C73.79 0, 127.58 0, 160 0 M160 0 C173.33 0, 180 6.67, 180 20 M160 0 C173.33 0, 180 6.67, 180 20 M180 20 C180 30.15, 180 40.3, 180 60 M180 20 C180 31.88, 180 43.75, 180 60 M180 60 C180 73.33, 173.33 80, 160 80 M180 60 C180 73.33, 173.33 80, 160 80 M160 80 C110.37 80, 60.74 80, 20 80 M160 80 C118.12 80, 76.24 80, 20 80 M20 80 C6.67 80, 0 73.33, 0 60 M20 80 C6.67 80, 0 73.33, 0 60 M0 60 C0 44.41, 0 28.81, 0 20 M0 60 C0 49.41, 0 38.82, 0 20 M0 20 C0 6.67, 6.67 0, 20 0 M0 20 C0 6.67, 6.67 0, 20 0" stroke="#1e1e1e" stroke-width="1" fill="none"></path></g><g transform="translate(432.1923828125 167) rotate(0 67.8076171875 23)"><text x="67.8076171875" y="0" font-family="Helvetica, Segoe UI Emoji" font-size="20px" fill="#1e1e1e" text-anchor="middle" style="white-space: pre;" direction="ltr" dominant-baseline="text-before-edge">[impl_interface]</text><text x="67.8076171875" y="23" font-family="Helvetica, Segoe UI Emoji" font-size="20px" fill="#1e1e1e" text-anchor="middle" style="white-space: pre;" direction="ltr" dominant-baseline="text-before-edge">LogIfImpl</text></g><g stroke-linecap="round" transform="translate(290 10) rotate(0 70 40)"><path d="M20 0 C58.68 0, 97.36 0, 120 0 M20 0 C45.95 0, 71.9 0, 120 0 M120 0 C133.33 0, 140 6.67, 140 20 M120 0 C133.33 0, 140 6.67, 140 20 M140 20 C140 33.56, 140 47.11, 140 60 M140 20 C140 30.91, 140 41.82, 140 60 M140 60 C140 73.33, 133.33 80, 120 80 M140 60 C140 73.33, 133.33 80, 120 80 M120 80 C87.94 80, 55.88 80, 20 80 M120 80 C97.17 80, 74.34 80, 20 80 M20 80 C6.67 80, 0 73.33, 0 60 M20 80 C6.67 80, 0 73.33, 0 60 M0 60 C0 45.55, 0 31.1, 0 20 M0 60 C0 50.39, 0 40.78, 0 20 M0 20 C0 6.67, 6.67 0, 20 0 M0 20 C0 6.67, 6.67 0, 20 0" stroke="#1e1e1e" stroke-width="1" fill="none"></path></g><g transform="translate(296.6259765625 27) rotate(0 63.3740234375 23)"><text x="63.3740234375" y="0" font-family="Helvetica, Segoe UI Emoji" font-size="20px" fill="#1e1e1e" text-anchor="middle" style="white-space: pre;" direction="ltr" dominant-baseline="text-before-edge">[def_interface]</text><text x="63.3740234375" y="23" font-family="Helvetica, Segoe UI Emoji" font-size="20px" fill="#1e1e1e" text-anchor="middle" style="white-space: pre;" direction="ltr" dominant-baseline="text-before-edge">LogIf</text></g><g stroke-linecap="round"><g transform="translate(506.51283702840624 149) rotate(0 -37.75641851420312 -47.34782608695653)"><path d="M0 0 C-2.75 -13.17, -3.93 -63.22, -16.51 -79 C-29.1 -94.78, -65.68 -92.08, -75.51 -94.7 M0 0 C-2.75 -13.17, -3.93 -63.22, -16.51 -79 C-29.1 -94.78, -65.68 -92.08, -75.51 -94.7" stroke="#1e1e1e" stroke-width="1" fill="none"></path></g><g transform="translate(506.51283702840624 149) rotate(0 -37.75641851420312 -47.34782608695653)"><path d="M-51.25 -100.72 C-58.78 -98.85, -66.3 -96.98, -75.51 -94.7 M-51.25 -100.72 C-59.48 -98.67, -67.71 -96.63, -75.51 -94.7" stroke="#1e1e1e" stroke-width="1" fill="none"></path></g><g transform="translate(506.51283702840624 149) rotate(0 -37.75641851420312 -47.34782608695653)"><path d="M-53.05 -83.71 C-60.02 -87.12, -66.99 -90.53, -75.51 -94.7 M-53.05 -83.71 C-60.67 -87.44, -68.29 -91.17, -75.51 -94.7" stroke="#1e1e1e" stroke-width="1" fill="none"></path></g></g><mask></mask><g transform="translate(510 70) rotate(0 18.3349609375 11.5)"><text x="0" y="0" font-family="Helvetica, Segoe UI Emoji" font-size="20px" fill="#1e1e1e" text-anchor="start" style="white-space: pre;" direction="ltr" dominant-baseline="text-before-edge">impl</text></g><g stroke-linecap="round"><g transform="translate(215.8361204013379 149) rotate(0 36.58193979933105 -47.34782608695653)"><path d="M0 0 C2.36 -13.17, 1.97 -63.22, 14.16 -79 C26.36 -94.78, 63.33 -92.08, 73.16 -94.7 M0 0 C2.36 -13.17, 1.97 -63.22, 14.16 -79 C26.36 -94.78, 63.33 -92.08, 73.16 -94.7" stroke="#1e1e1e" stroke-width="1" fill="none"></path></g><g transform="translate(215.8361204013379 149) rotate(0 36.58193979933105 -47.34782608695653)"><path d="M50.7 -83.72 C57.27 -86.93, 63.84 -90.14, 73.16 -94.7 M50.7 -83.72 C56.74 -86.68, 62.78 -89.63, 73.16 -94.7" stroke="#1e1e1e" stroke-width="1" fill="none"></path></g><g transform="translate(215.8361204013379 149) rotate(0 36.58193979933105 -47.34782608695653)"><path d="M48.9 -100.73 C56 -98.97, 63.1 -97.2, 73.16 -94.7 M48.9 -100.73 C55.43 -99.11, 61.95 -97.48, 73.16 -94.7" stroke="#1e1e1e" stroke-width="1" fill="none"></path></g></g><mask></mask><g transform="translate(190 70) rotate(0 15.0048828125 11.5)"><text x="0" y="0" font-family="Helvetica, Segoe UI Emoji" font-size="20px" fill="#1e1e1e" text-anchor="start" style="white-space: pre;" direction="ltr" dominant-baseline="text-before-edge">call</text></g><g stroke-linecap="round"><g transform="translate(10 310) rotate(0 300 0)"><path d="M0 0 C100 0, 500 0, 600 0" stroke="#1e1e1e" stroke-width="1.5" fill="none" stroke-dasharray="1.5 7"></path></g></g><mask></mask><g stroke-linecap="round" transform="translate(410 370) rotate(0 90 20)"><path d="M10 0 C67.29 0, 124.58 0, 170 0 M10 0 C50.98 0, 91.95 0, 170 0 M170 0 C176.67 0, 180 3.33, 180 10 M170 0 C176.67 0, 180 3.33, 180 10 M180 10 C180 17.27, 180 24.55, 180 30 M180 10 C180 17.9, 180 25.81, 180 30 M180 30 C180 36.67, 176.67 40, 170 40 M180 30 C180 36.67, 176.67 40, 170 40 M170 40 C117.28 40, 64.55 40, 10 40 M170 40 C116.88 40, 63.75 40, 10 40 M10 40 C3.33 40, 0 36.67, 0 30 M10 40 C3.33 40, 0 36.67, 0 30 M0 30 C0 25.49, 0 20.98, 0 10 M0 30 C0 22.2, 0 14.4, 0 10 M0 10 C0 3.33, 3.33 0, 10 0 M0 10 C0 3.33, 3.33 0, 10 0" stroke="#1e1e1e" stroke-width="1" fill="none"></path></g><g transform="translate(434.4189453125 378.5) rotate(0 65.5810546875 11.5)"><text x="65.5810546875" y="0" font-family="Helvetica, Segoe UI Emoji" font-size="20px" fill="#1e1e1e" text-anchor="middle" style="white-space: pre;" direction="ltr" dominant-baseline="text-before-edge">LogIf::write_str</text></g><g stroke-linecap="round" transform="translate(130 370) rotate(0 90 20)"><path d="M10 0 C66.03 0, 122.06 0, 170 0 M170 0 C176.67 0, 180 3.33, 180 10 M180 10 C180 15.71, 180 21.42, 180 30 M180 30 C180 36.67, 176.67 40, 170 40 M170 40 C109.55 40, 49.09 40, 10 40 M10 40 C3.33 40, 0 36.67, 0 30 M0 30 C0 23.44, 0 16.88, 0 10 M0 10 C0 3.33, 3.33 0, 10 0" stroke="#1e1e1e" stroke-width="1.5" fill="none" stroke-dasharray="1.5 7"></path></g><g transform="translate(154.4189453125 378.5) rotate(0 65.5810546875 11.5)"><text x="65.5810546875" y="0" font-family="Helvetica, Segoe UI Emoji" font-size="20px" fill="#1e1e1e" text-anchor="middle" style="white-space: pre;" direction="ltr" dominant-baseline="text-before-edge">LogIf::write_str</text></g><g stroke-linecap="round"><g transform="translate(150 230) rotate(0 0 69.5)"><path d="M0 0 C0 23.17, 0 115.83, 0 139 M0 0 C0 23.17, 0 115.83, 0 139" stroke="#1e1e1e" stroke-width="1" fill="none"></path></g><g transform="translate(150 230) rotate(0 0 69.5)"><path d="M-8.55 115.51 C-6.62 120.81, -4.69 126.11, 0 139 M-8.55 115.51 C-6.54 121.02, -4.54 126.53, 0 139" stroke="#1e1e1e" stroke-width="1" fill="none"></path></g><g transform="translate(150 230) rotate(0 0 69.5)"><path d="M8.55 115.51 C6.62 120.81, 4.69 126.11, 0 139 M8.55 115.51 C6.54 121.02, 4.54 126.53, 0 139" stroke="#1e1e1e" stroke-width="1" fill="none"></path></g></g><mask></mask><g stroke-linecap="round"><g transform="translate(570 231) rotate(0 0 69)"><path d="M0 0 C0 23, 0 115, 0 138 M0 0 C0 23, 0 115, 0 138" stroke="#1e1e1e" stroke-width="1" fill="none"></path></g><g transform="translate(570 231) rotate(0 0 69)"><path d="M-8.55 114.51 C-5.62 122.55, -2.69 130.6, 0 138 M-8.55 114.51 C-5.79 122.11, -3.02 129.7, 0 138" stroke="#1e1e1e" stroke-width="1" fill="none"></path></g><g transform="translate(570 231) rotate(0 0 69)"><path d="M8.55 114.51 C5.62 122.55, 2.69 130.6, 0 138 M8.55 114.51 C5.79 122.11, 3.02 129.7, 0 138" stroke="#1e1e1e" stroke-width="1" fill="none"></path></g></g><mask></mask><g stroke-linecap="round" transform="translate(130 410) rotate(0 90 20)"><path d="M10 0 C67.38 0, 124.76 0, 170 0 M170 0 C176.67 0, 180 3.33, 180 10 M180 10 C180 15.26, 180 20.53, 180 30 M180 30 C180 36.67, 176.67 40, 170 40 M170 40 C123.39 40, 76.79 40, 10 40 M10 40 C3.33 40, 0 36.67, 0 30 M0 30 C0 25.9, 0 21.8, 0 10 M0 10 C0 3.33, 3.33 0, 10 0" stroke="#1e1e1e" stroke-width="1.5" fill="none" stroke-dasharray="1.5 7"></path></g><g transform="translate(153.84765625 418.5) rotate(0 66.15234375 11.5)"><text x="66.15234375" y="0" font-family="Helvetica, Segoe UI Emoji" font-size="20px" fill="#1e1e1e" text-anchor="middle" style="white-space: pre;" direction="ltr" dominant-baseline="text-before-edge">LogIf::get_time</text></g><g stroke-linecap="round" transform="translate(410 410) rotate(0 90 20)"><path d="M10 0 C51.26 0, 92.51 0, 170 0 M10 0 C66.41 0, 122.82 0, 170 0 M170 0 C176.67 0, 180 3.33, 180 10 M170 0 C176.67 0, 180 3.33, 180 10 M180 10 C180 14.8, 180 19.6, 180 30 M180 10 C180 15.36, 180 20.73, 180 30 M180 30 C180 36.67, 176.67 40, 170 40 M180 30 C180 36.67, 176.67 40, 170 40 M170 40 C133 40, 95.99 40, 10 40 M170 40 C108.73 40, 47.46 40, 10 40 M10 40 C3.33 40, 0 36.67, 0 30 M10 40 C3.33 40, 0 36.67, 0 30 M0 30 C0 23.5, 0 17, 0 10 M0 30 C0 22.58, 0 15.15, 0 10 M0 10 C0 3.33, 3.33 0, 10 0 M0 10 C0 3.33, 3.33 0, 10 0" stroke="#1e1e1e" stroke-width="1" fill="none"></path></g><g transform="translate(433.84765625 418.5) rotate(0 66.15234375 11.5)"><text x="66.15234375" y="0" font-family="Helvetica, Segoe UI Emoji" font-size="20px" fill="#1e1e1e" text-anchor="middle" style="white-space: pre;" direction="ltr" dominant-baseline="text-before-edge">LogIf::get_time</text></g><g transform="translate(150 470) rotate(0 64.4775390625 11.5)"><text x="0" y="0" font-family="Helvetica, Segoe UI Emoji" font-size="20px" fill="#1e1e1e" text-anchor="start" style="white-space: pre;" direction="ltr" dominant-baseline="text-before-edge">undef symbols</text></g><g transform="translate(430 470) rotate(0 66.142578125 11.5)"><text x="0" y="0" font-family="Helvetica, Segoe UI Emoji" font-size="20px" fill="#1e1e1e" text-anchor="start" style="white-space: pre;" direction="ltr" dominant-baseline="text-before-edge">global symbols</text></g><g stroke-linecap="round"><g transform="translate(390 410) rotate(0 -30 0)"><path d="M0 0 C-10 0, -50 0, -60 0 M0 0 C-10 0, -50 0, -60 0" stroke="#1e1e1e" stroke-width="4" fill="none"></path></g><g transform="translate(390 410) rotate(0 -30 0)"><path d="M-36.51 -8.55 C-42.13 -6.5, -47.76 -4.46, -60 0 M-36.51 -8.55 C-45.22 -5.38, -53.94 -2.21, -60 0" stroke="#1e1e1e" stroke-width="4" fill="none"></path></g><g transform="translate(390 410) rotate(0 -30 0)"><path d="M-36.51 8.55 C-42.13 6.5, -47.76 4.46, -60 0 M-36.51 8.55 C-45.22 5.38, -53.94 2.21, -60 0" stroke="#1e1e1e" stroke-width="4" fill="none"></path></g></g><mask></mask><g transform="translate(352.4000244140625 380.4000244140625) rotate(0 15.0048828125 11.5)"><text x="0" y="0" font-family="Helvetica, Segoe UI Emoji" font-size="20px" fill="#1e1e1e" text-anchor="start" style="white-space: pre;" direction="ltr" dominant-baseline="text-before-edge">link</text></g><g transform="translate(10 270) rotate(0 42.2509765625 11.5)"><text x="0" y="0" font-family="Helvetica, Segoe UI Emoji" font-size="20px" fill="#1e1e1e" text-anchor="start" style="white-space: pre;" direction="ltr" dominant-baseline="text-before-edge">high level</text></g><g transform="translate(10 330) rotate(0 36.689453125 11.5)"><text x="0" y="0" font-family="Helvetica, Segoe UI Emoji" font-size="20px" fill="#1e1e1e" text-anchor="start" style="white-space: pre;" direction="ltr" dominant-baseline="text-before-edge">abi level</text></g></svg>