<svg version="1.1" xmlns="http://www.w3.org/2000/svg" viewBox="0 0 520 283" width="520" height="283">
  <!-- svg-source:excalidraw -->
  
  <defs>
    <style class="style-fonts">
      @font-face {
        font-family: "Virgil";
        src: url("https://excalidraw.com/Virgil.woff2");
      }
      @font-face {
        font-family: "Cascadia";
        src: url("https://excalidraw.com/Cascadia.woff2");
      }
      @font-face {
        font-family: "Assistant";
        src: url("https://excalidraw.com/Assistant-Regular.woff2");
      }
    </style>
    
  </defs>
  <rect x="0" y="0" width="520" height="283" fill="#ffffff"></rect><g stroke-linecap="round" transform="translate(10 150) rotate(0 100 30)"><path d="M15 0 C72.44 0, 129.88 0, 185 0 M15 0 C62.54 0, 110.08 0, 185 0 M185 0 C195 0, 200 5, 200 15 M185 0 C195 0, 200 5, 200 15 M200 15 C200 26.22, 200 37.44, 200 45 M200 15 C200 23.12, 200 31.23, 200 45 M200 45 C200 55, 195 60, 185 60 M200 45 C200 55, 195 60, 185 60 M185 60 C142.71 60, 100.42 60, 15 60 M185 60 C142.26 60, 99.52 60, 15 60 M15 60 C5 60, 0 55, 0 45 M15 60 C5 60, 0 55, 0 45 M0 45 C0 36.34, 0 27.68, 0 15 M0 45 C0 33.14, 0 21.28, 0 15 M0 15 C0 5, 5 0, 15 0 M0 15 C0 5, 5 0, 15 0" stroke="#1e1e1e" stroke-width="1" fill="none"></path></g><g transform="translate(45.5517578125 168.5) rotate(0 64.4482421875 11.5)"><text x="64.4482421875" y="0" font-family="Helvetica, Segoe UI Emoji" font-size="20px" fill="#1e1e1e" text-anchor="middle" style="white-space: pre;" direction="ltr" dominant-baseline="text-before-edge">任务1 - 执行流</text></g><g stroke-linecap="round" transform="translate(10 10) rotate(0 100 28)"><path d="M14 0 C61.4 0, 108.8 0, 186 0 M14 0 C49.39 0, 84.78 0, 186 0 M186 0 C195.33 0, 200 4.67, 200 14 M186 0 C195.33 0, 200 4.67, 200 14 M200 14 C200 23.21, 200 32.42, 200 42 M200 14 C200 19.9, 200 25.81, 200 42 M200 42 C200 51.33, 195.33 56, 186 56 M200 42 C200 51.33, 195.33 56, 186 56 M186 56 C148.77 56, 111.54 56, 14 56 M186 56 C145.66 56, 105.32 56, 14 56 M14 56 C4.67 56, 0 51.33, 0 42 M14 56 C4.67 56, 0 51.33, 0 42 M0 42 C0 31.49, 0 20.98, 0 14 M0 42 C0 35.92, 0 29.84, 0 14 M0 14 C0 4.67, 4.67 0, 14 0 M0 14 C0 4.67, 4.67 0, 14 0" stroke="#1e1e1e" stroke-width="1" fill="none"></path></g><g transform="translate(23.33984375 15) rotate(0 86.66015625 23)"><text x="86.66015625" y="0" font-family="Helvetica, Segoe UI Emoji" font-size="20px" fill="#1e1e1e" text-anchor="middle" style="white-space: pre;" direction="ltr" dominant-baseline="text-before-edge">异常处理例程</text><text x="86.66015625" y="23" font-family="Helvetica, Segoe UI Emoji" font-size="20px" fill="#1e1e1e" text-anchor="middle" style="white-space: pre;" direction="ltr" dominant-baseline="text-before-edge">(基于当前任务的栈)</text></g><g stroke-linecap="round"><g transform="translate(30 150) rotate(0 0 -40)"><path d="M0 0 C0 -13.33, 0 -66.67, 0 -80 M0 0 C0 -13.33, 0 -66.67, 0 -80" stroke="#1e1e1e" stroke-width="1" fill="none"></path></g><g transform="translate(30 150) rotate(0 0 -40)"><path d="M8.55 -56.51 C5.34 -65.33, 2.13 -74.14, 0 -80 M8.55 -56.51 C5.48 -64.96, 2.4 -73.41, 0 -80" stroke="#1e1e1e" stroke-width="1" fill="none"></path></g><g transform="translate(30 150) rotate(0 0 -40)"><path d="M-8.55 -56.51 C-5.34 -65.33, -2.13 -74.14, 0 -80 M-8.55 -56.51 C-5.48 -64.96, -2.4 -73.41, 0 -80" stroke="#1e1e1e" stroke-width="1" fill="none"></path></g></g><mask></mask><g stroke-linecap="round"><g transform="translate(190 70) rotate(0 0 40)"><path d="M0 0 C0 13.33, 0 66.67, 0 80 M0 0 C0 13.33, 0 66.67, 0 80" stroke="#1e1e1e" stroke-width="1" fill="none"></path></g><g transform="translate(190 70) rotate(0 0 40)"><path d="M-8.55 56.51 C-6.27 62.77, -3.99 69.03, 0 80 M-8.55 56.51 C-6.63 61.79, -4.7 67.08, 0 80" stroke="#1e1e1e" stroke-width="1" fill="none"></path></g><g transform="translate(190 70) rotate(0 0 40)"><path d="M8.55 56.51 C6.27 62.77, 3.99 69.03, 0 80 M8.55 56.51 C6.63 61.79, 4.7 67.08, 0 80" stroke="#1e1e1e" stroke-width="1" fill="none"></path></g></g><mask></mask><g transform="translate(30 90) rotate(0 75.556640625 11.5)"><text x="0" y="0" font-family="Helvetica, Segoe UI Emoji" font-size="20px" fill="#1e1e1e" text-anchor="start" style="white-space: pre;" direction="ltr" dominant-baseline="text-before-edge">  异常上下文切换</text></g><g stroke-linecap="round" transform="translate(310 150) rotate(0 100 30)"><path d="M15 0 C54.55 0, 94.1 0, 185 0 M15 0 C81.27 0, 147.53 0, 185 0 M185 0 C195 0, 200 5, 200 15 M185 0 C195 0, 200 5, 200 15 M200 15 C200 25.35, 200 35.7, 200 45 M200 15 C200 26.44, 200 37.88, 200 45 M200 45 C200 55, 195 60, 185 60 M200 45 C200 55, 195 60, 185 60 M185 60 C147.25 60, 109.51 60, 15 60 M185 60 C148.59 60, 112.18 60, 15 60 M15 60 C5 60, 0 55, 0 45 M15 60 C5 60, 0 55, 0 45 M0 45 C0 36.97, 0 28.94, 0 15 M0 45 C0 36.2, 0 27.4, 0 15 M0 15 C0 5, 5 0, 15 0 M0 15 C0 5, 5 0, 15 0" stroke="#1e1e1e" stroke-width="1" fill="none"></path></g><g transform="translate(345.5517578125 168.5) rotate(0 64.4482421875 11.5)"><text x="64.4482421875" y="0" font-family="Helvetica, Segoe UI Emoji" font-size="20px" fill="#1e1e1e" text-anchor="middle" style="white-space: pre;" direction="ltr" dominant-baseline="text-before-edge">任务2 - 执行流</text></g><g stroke-linecap="round" transform="translate(310 10) rotate(0 100 30)"><path d="M15 0 C50.28 0, 85.57 0, 185 0 M15 0 C73.94 0, 132.88 0, 185 0 M185 0 C195 0, 200 5, 200 15 M185 0 C195 0, 200 5, 200 15 M200 15 C200 26.59, 200 38.18, 200 45 M200 15 C200 21.69, 200 28.38, 200 45 M200 45 C200 55, 195 60, 185 60 M200 45 C200 55, 195 60, 185 60 M185 60 C142.07 60, 99.13 60, 15 60 M185 60 C143.7 60, 102.4 60, 15 60 M15 60 C5 60, 0 55, 0 45 M15 60 C5 60, 0 55, 0 45 M0 45 C0 37.25, 0 29.5, 0 15 M0 45 C0 36.16, 0 27.32, 0 15 M0 15 C0 5, 5 0, 15 0 M0 15 C0 5, 5 0, 15 0" stroke="#1e1e1e" stroke-width="1" fill="none"></path></g><g transform="translate(323.33984375 17) rotate(0 86.66015625 23)"><text x="86.66015625" y="0" font-family="Helvetica, Segoe UI Emoji" font-size="20px" fill="#1e1e1e" text-anchor="middle" style="white-space: pre;" direction="ltr" dominant-baseline="text-before-edge">异常处理例程</text><text x="86.66015625" y="23" font-family="Helvetica, Segoe UI Emoji" font-size="20px" fill="#1e1e1e" text-anchor="middle" style="white-space: pre;" direction="ltr" dominant-baseline="text-before-edge">(基于当前任务的栈)</text></g><g stroke-linecap="round"><g transform="translate(330 150) rotate(0 0 -40)"><path d="M0 0 C0 -13.33, 0 -66.67, 0 -80 M0 0 C0 -13.33, 0 -66.67, 0 -80" stroke="#1e1e1e" stroke-width="1" fill="none"></path></g><g transform="translate(330 150) rotate(0 0 -40)"><path d="M8.55 -56.51 C6.08 -63.29, 3.61 -70.08, 0 -80 M8.55 -56.51 C5.41 -65.13, 2.28 -73.74, 0 -80" stroke="#1e1e1e" stroke-width="1" fill="none"></path></g><g transform="translate(330 150) rotate(0 0 -40)"><path d="M-8.55 -56.51 C-6.08 -63.29, -3.61 -70.08, 0 -80 M-8.55 -56.51 C-5.41 -65.13, -2.28 -73.74, 0 -80" stroke="#1e1e1e" stroke-width="1" fill="none"></path></g></g><mask></mask><g stroke-linecap="round"><g transform="translate(490 70) rotate(0 0 40)"><path d="M0 0 C0 13.33, 0 66.67, 0 80 M0 0 C0 13.33, 0 66.67, 0 80" stroke="#1e1e1e" stroke-width="1" fill="none"></path></g><g transform="translate(490 70) rotate(0 0 40)"><path d="M-8.55 56.51 C-5.29 65.48, -2.02 74.45, 0 80 M-8.55 56.51 C-5.24 65.61, -1.92 74.72, 0 80" stroke="#1e1e1e" stroke-width="1" fill="none"></path></g><g transform="translate(490 70) rotate(0 0 40)"><path d="M8.55 56.51 C5.29 65.48, 2.02 74.45, 0 80 M8.55 56.51 C5.24 65.61, 1.92 74.72, 0 80" stroke="#1e1e1e" stroke-width="1" fill="none"></path></g></g><mask></mask><g transform="translate(330 90) rotate(0 75.556640625 11.5)"><text x="0" y="0" font-family="Helvetica, Segoe UI Emoji" font-size="20px" fill="#1e1e1e" text-anchor="start" style="white-space: pre;" direction="ltr" dominant-baseline="text-before-edge">  异常上下文切换</text></g><g stroke-linecap="round"><g transform="translate(110 210) rotate(0 150 30)"><path d="M0 0 C23.33 10, 90 60, 140 60 C190 60, 273.33 10, 300 0 M0 0 C23.33 10, 90 60, 140 60 C190 60, 273.33 10, 300 0" stroke="#1e1e1e" stroke-width="1" fill="none"></path></g><g transform="translate(110 210) rotate(0 150 30)"><path d="M282.39 17.75 C288.49 11.6, 294.59 5.45, 300 0 M282.39 17.75 C286.43 13.68, 290.46 9.62, 300 0" stroke="#1e1e1e" stroke-width="1" fill="none"></path></g><g transform="translate(110 210) rotate(0 150 30)"><path d="M275.1 2.28 C283.73 1.49, 292.36 0.7, 300 0 M275.1 2.28 C280.81 1.76, 286.51 1.23, 300 0" stroke="#1e1e1e" stroke-width="1" fill="none"></path></g></g><mask></mask><g stroke-linecap="round"><g transform="translate(370 210) rotate(0 -120 20)"><path d="M0 0 C-20 6.67, -80 40, -120 40 C-160 40, -220 6.67, -240 0 M0 0 C-20 6.67, -80 40, -120 40 C-160 40, -220 6.67, -240 0" stroke="#1e1e1e" stroke-width="1" fill="none"></path></g><g transform="translate(370 210) rotate(0 -120 20)"><path d="M-215.04 1.34 C-221.82 0.98, -228.6 0.61, -240 0 M-215.04 1.34 C-223.91 0.86, -232.79 0.39, -240 0" stroke="#1e1e1e" stroke-width="1" fill="none"></path></g><g transform="translate(370 210) rotate(0 -120 20)"><path d="M-221.74 17.07 C-226.7 12.44, -231.66 7.8, -240 0 M-221.74 17.07 C-228.23 11, -234.72 4.93, -240 0" stroke="#1e1e1e" stroke-width="1" fill="none"></path></g></g><mask></mask><g transform="translate(170 250) rotate(0 75.556640625 11.5)"><text x="0" y="0" font-family="Helvetica, Segoe UI Emoji" font-size="20px" fill="#1e1e1e" text-anchor="start" style="white-space: pre;" direction="ltr" dominant-baseline="text-before-edge">  任务上下文切换</text></g></svg>